HIERARCHY
ROOT hips
{
  OFFSET 0 10.6860622 2.3727825e-15
  CHANNELS 6 Xposition Yposition Zposition Yrotation Xrotation Zrotation
  JOINT leftUpperLeg
  {
    OFFSET 0.6642549969 -0.9402397400000004 0
    CHANNELS 3 Yrotation Xrotation Zrotation
    JOINT leftLowerLeg
    {
      OFFSET 0 -3.997221335632195 0
      CHANNELS 3 Yrotation Xrotation Zrotation
      JOINT leftFoot
      {
        OFFSET -0.13777839790000004 -4.6145792000000005 -0.22186036399999998
        CHANNELS 3 Yrotation Xrotation Zrotation
        JOINT leftToes
        {
          OFFSET -0.03777410834999995 -0.9130806927000008 0.85230013
          CHANNELS 3 Yrotation Xrotation Zrotation
          End Site
          {
            OFFSET -0.03777410834999995 -0.9130806927000008 0.85230013
          }
        }
      }
    }
  }
  JOINT rightUpperLeg
  {
    OFFSET -0.6642778626 -0.9402397400000004 0
    CHANNELS 3 Yrotation Xrotation Zrotation
    JOINT rightLowerLeg
    {
      OFFSET 0 -3.997221452859387 0
      CHANNELS 3 Yrotation Xrotation Zrotation
      JOINT rightFoot
      {
        OFFSET 0.1377926176 -4.6145792000000005 -0.22185782299999995
        CHANNELS 3 Yrotation Xrotation Zrotation
        JOINT rightToes
        {
          OFFSET 0.037780746850000047 -0.9130806927000008 0.85230167
          CHANNELS 3 Yrotation Xrotation Zrotation
          End Site
          {
            OFFSET 0.037780746850000047 -0.9130806927000008 0.85230167
          }
        }
      }
    }
  }
  JOINT spine
  {
    OFFSET 0 0.13988381660000015 0
    CHANNELS 3 Yrotation Xrotation Zrotation
    JOINT chest
    {
      OFFSET 0 0.6191039003973773 0
      CHANNELS 3 Yrotation Xrotation Zrotation
      JOINT upperChest
      {
        OFFSET 0 0.9855186130586943 0
        CHANNELS 3 Yrotation Xrotation Zrotation
        JOINT leftShoulder
        {
          OFFSET 0.1807663869 1.5087829790000005 0
          CHANNELS 3 Yrotation Xrotation Zrotation
          JOINT leftUpperArm
          {
            OFFSET 0.5985063006419806 0 0
            CHANNELS 3 Yrotation Xrotation Zrotation
            JOINT leftLowerArm
            {
              OFFSET 2.2993332369501065 0 0
              CHANNELS 3 Yrotation Xrotation Zrotation
              JOINT leftHand
              {
                OFFSET 2.395047042602395 0 0
                CHANNELS 3 Yrotation Xrotation Zrotation
                JOINT leftIndexProximal
                {
                  OFFSET 0.5766295810000004 0.04556643899499946 0.17265095988184
                  CHANNELS 3 Yrotation Xrotation Zrotation
                  JOINT leftIndexIntermediate
                  {
                    OFFSET 0.2957229000000008 -0.019352197700001517 -0.007932640616999987
                    CHANNELS 3 Yrotation Xrotation Zrotation
                    JOINT leftIndexDistal
                    {
                      OFFSET 0.19008243099999922 -0.012484908149998475 -0.002786250786000012
                      CHANNELS 3 Yrotation Xrotation Zrotation
                      End Site
                      {
                        OFFSET 0.19008243099999922 -0.012484908149998475 -0.002786250786000012
                      }
                    }
                  }
                }
                JOINT leftMiddleProximal
                {
                  OFFSET 0.5834975091000001 0.0524350405149987 0.02204081888183999
                  CHANNELS 3 Yrotation Xrotation Zrotation
                  JOINT leftMiddleIntermediate
                  {
                    OFFSET 0.33880573540000003 -0.019871473270000717 -0.00000971183179999946
                    CHANNELS 3 Yrotation Xrotation Zrotation
                    JOINT leftMiddleDistal
                    {
                      OFFSET 0.20676022730000088 -0.012221336379999448 0.0001471936708000235
                      CHANNELS 3 Yrotation Xrotation Zrotation
                      End Site
                      {
                        OFFSET 0.20676022730000088 -0.012221336379999448 0.0001471936708000235
                      }
                    }
                  }
                }
                JOINT leftLittleProximal
                {
                  OFFSET 0.5344154683999995 -0.012880921405001189 -0.24414037221816004
                  CHANNELS 3 Yrotation Xrotation Zrotation
                  JOINT leftLittleIntermediate
                  {
                    OFFSET 0.21758961730000093 -0.011650919939999227 0.011893592810000034
                    CHANNELS 3 Yrotation Xrotation Zrotation
                    JOINT leftLittleDistal
                    {
                      OFFSET 0.1475273964999999 -0.008152365682999818 0.006001092492999946
                      CHANNELS 3 Yrotation Xrotation Zrotation
                      End Site
                      {
                        OFFSET 0.1475273964999999 -0.008152365682999818 0.006001092492999946
                      }
                    }
                  }
                }
                JOINT leftRingProximal
                {
                  OFFSET 0.5799399463000003 0.026911854694997794 -0.12150566991816003
                  CHANNELS 3 Yrotation Xrotation Zrotation
                  JOINT leftRingIntermediate
                  {
                    OFFSET 0.26167887460000006 -0.013480186499999602 0.010996293000000053
                    CHANNELS 3 Yrotation Xrotation Zrotation
                    JOINT leftRingDistal
                    {
                      OFFSET 0.17667108799999987 -0.008990287899999228 0.0055541023999999065
                      CHANNELS 3 Yrotation Xrotation Zrotation
                      End Site
                      {
                        OFFSET 0.17667108799999987 -0.008990287899999228 0.0055541023999999065
                      }
                    }
                  }
                }
                JOINT leftThumbProximal
                {
                  OFFSET 0.11018806699999972 -0.09448718900500053 0.17047963138184
                  CHANNELS 3 Yrotation Xrotation Zrotation
                  JOINT leftThumbIntermediate
                  {
                    OFFSET 0.31062601459999983 -0.08126270900000132 0.15443142000000007
                    CHANNELS 3 Yrotation Xrotation Zrotation
                    JOINT leftThumbDistal
                    {
                      OFFSET 0.21627175790000086 -0.08833193599999878 0.018771167799999988
                      CHANNELS 3 Yrotation Xrotation Zrotation
                      End Site
                      {
                        OFFSET 0.21627175790000086 -0.08833193599999878 0.018771167799999988
                      }
                    }
                  }
                }
              }
            }
          }
        }
        JOINT neck
        {
          OFFSET 0 1.5463305265074576 0
          CHANNELS 3 Yrotation Xrotation Zrotation
          JOINT head
          {
            OFFSET 0 0.8456443600000344 0
            CHANNELS 3 Yrotation Xrotation Zrotation
            JOINT leftEye
            {
              OFFSET 0.30408573140000006 0.5104519199999995 0.1276382305
              CHANNELS 3 Yrotation Xrotation Zrotation
              End Site
              {
                OFFSET 0.30408573140000006 0.5104519199999995 0.1276382305
              }
            }
            JOINT rightEye
            {
              OFFSET -0.30409491089999996 0.5104519199999995 0.1276379445
              CHANNELS 3 Yrotation Xrotation Zrotation
              End Site
              {
                OFFSET -0.30409491089999996 0.5104519199999995 0.1276379445
              }
            }
            JOINT jaw
            {
              OFFSET -3.155239131000001e-7 -0.11984121820000082 0.60178107
              CHANNELS 3 Yrotation Xrotation Zrotation
              End Site
              {
                OFFSET -3.155239131000001e-7 -0.11984121820000082 0.60178107
              }
            }
          }
        }
        JOINT rightShoulder
        {
          OFFSET -0.1807303465 1.5087829790000005 0
          CHANNELS 3 Yrotation Xrotation Zrotation
          JOINT rightUpperArm
          {
            OFFSET -0.5985063796536958 0 0
            CHANNELS 3 Yrotation Xrotation Zrotation
            JOINT rightLowerArm
            {
              OFFSET -2.2993322059002854 0 0
              CHANNELS 3 Yrotation Xrotation Zrotation
              JOINT rightHand
              {
                OFFSET -2.395045314457259 0 0
                CHANNELS 3 Yrotation Xrotation Zrotation
                JOINT rightIndexProximal
                {
                  OFFSET -0.5764487688300002 0.0441371204405987 0.17361932004999997
                  CHANNELS 3 Yrotation Xrotation Zrotation
                  JOINT rightIndexIntermediate
                  {
                    OFFSET -0.29573011380000047 -0.01934826376999843 -0.007698921482999974
                    CHANNELS 3 Yrotation Xrotation Zrotation
                    JOINT rightIndexDistal
                    {
                      OFFSET -0.19008373999999884 -0.012503266380000655 -0.0026365778999999897
                      CHANNELS 3 Yrotation Xrotation Zrotation
                      End Site
                      {
                        OFFSET -0.19008373999999884 -0.012503266380000655 -0.0026365778999999897
                      }
                    }
                  }
                }
                JOINT rightMiddleProximal
                {
                  OFFSET -0.5834852037300005 0.05211639405060153 0.02307162440000001
                  CHANNELS 3 Yrotation Xrotation Zrotation
                  JOINT rightMiddleIntermediate
                  {
                    OFFSET -0.33880114510000003 -0.019952774050000954 0.0002455003561999819
                    CHANNELS 3 Yrotation Xrotation Zrotation
                    JOINT rightMiddleDistal
                    {
                      OFFSET -0.20675694929999955 -0.012273788999999091 0.00030209124000002766
                      CHANNELS 3 Yrotation Xrotation Zrotation
                      End Site
                      {
                        OFFSET -0.20675694929999955 -0.012273788999999091 0.00030209124000002766
                      }
                    }
                  }
                }
                JOINT rightLittleProximal
                {
                  OFFSET -0.5346811737299992 -0.011214256288399227 -0.24363941305000003
                  CHANNELS 3 Yrotation Xrotation Zrotation
                  JOINT rightLittleIntermediate
                  {
                    OFFSET -0.21757715980000092 -0.011771559690000988 0.01201554387
                    CHANNELS 3 Yrotation Xrotation Zrotation
                    JOINT rightLittleDistal
                    {
                      OFFSET -0.1475201849000004 -0.00822055339600003 0.006082065407000015
                      CHANNELS 3 Yrotation Xrotation Zrotation
                      End Site
                      {
                        OFFSET -0.1475201849000004 -0.00822055339600003 0.006082065407000015
                      }
                    }
                  }
                }
                JOINT rightRingProximal
                {
                  OFFSET -0.5800810755299999 0.027657985680600072 -0.12066365025000003
                  CHANNELS 3 Yrotation Xrotation Zrotation
                  JOINT rightRingIntermediate
                  {
                    OFFSET -0.26166445029999974 -0.013623118409999302 0.011164098990000045
                    CHANNELS 3 Yrotation Xrotation Zrotation
                    JOINT rightRingDistal
                    {
                      OFFSET -0.17666387530000027 -0.009072900100000503 0.005668185599999959
                      CHANNELS 3 Yrotation Xrotation Zrotation
                      End Site
                      {
                        OFFSET -0.17666387530000027 -0.009072900100000503 0.005668185599999959
                      }
                    }
                  }
                }
                JOINT rightThumbProximal
                {
                  OFFSET -0.10997596379000074 -0.09577489355940072 0.16989765924999997
                  CHANNELS 3 Yrotation Xrotation Zrotation
                  JOINT rightThumbIntermediate
                  {
                    OFFSET -0.31036620999999986 -0.08229339117999834 0.15440884469999996
                    CHANNELS 3 Yrotation Xrotation Zrotation
                    JOINT rightThumbDistal
                    {
                      OFFSET -0.21631306399999906 -0.08825326400000111 0.018656797720000014
                      CHANNELS 3 Yrotation Xrotation Zrotation
                      End Site
                      {
                        OFFSET -0.21631306399999906 -0.08825326400000111 0.018656797720000014
                      }
                    }
                  }
                }
              }
            }
          }
        }
      }
    }
  }
}
MOTION
Frames: 7
Frame Time: 0.03333333333333333
0 11.682712981546562 0 0 0 0 0 0 -5.826343164929014 -0.3712483961610101 -3.6333298826370974 5.838118207697276 0 0 0 0 0 0 0 0 5.826343164929014 0.3712483961610101 -3.6333298826370974 -5.838118207697276 0 0 0 0 0 0 0 -4.610651315171937 0 0 3.0831277533083026 0 0 0 0 0 1.5275236235667615 0 0 0 0 0 0 0 0 0 0 0 0 0 0 0 0 0 0 0 0 0 0 0 0 0 0 0 0 0 0 0 0 0 0 0 0 0 0 0 0 0 0 0 0 0 0 0 0 0 0 0 0 0 0 0 0 1.5275236235667615 0 0 0 0 0 0 0 0 0 0 0 0 0 0 1.5275236235667615 0 0 0 0 0 0 0 0 0 0 0 0 0 0 0 0 0 0 0 0 0 0 0 0 0 0 0 0 0 0 0 0 0 0 0 0 0 0 0 0 0 0 0 0 0 0 0 0 0 0 0 0 0 0 0
-1.3419613565303835e-7 0.9385697856993858 5.098687297469286 -30.86634696394123 -35.90479500613841 30.86481548982089 27.827618271972735 -14.175100951043126 -14.07181882480771 3.2220140413155174 41.0787283484002 8.68447081403587 -3.831977384230591 2.177564380995937 2.3365521948643275 0 0 0 -4.789393576539873 -35.56834260051055 -12.996254415057273 -8.26426332894283 35.26103874660073 -5.3990111800595315 -0.913085907869907 5.614327385955921 9.710565657528152 0 0 0 -6.116106215536696 2.2518377686343234 -8.982694824864279 -7.817415051409204 4.491302927081556 -12.489499909247396 0 0 0 -12.011500542684225 -0.07405437901284714 -3.054982444908146 28.08963977036478 -19.7388888257494 -22.971233269721 -4.456046058334054 -16.988903942356618 -6.4514968620696 -8.197784223076535 18.735003650874884 2.600830754177209 0 0 0 0 0 0 0 0 0 0 0 0 0 0 0 0 0 0 0 0 0 0 0 0 0 0 0 0 0 0 0 0 0 0 0 0 0 0 0 0 0 0 0 0 0 -7.264145461262167 -0.4406454336884981 -10.62225315276311 14.637437035668333 -0.6560928547442704 -0.7250528254411693 0 0 0 0 0 0 0 0 0 -14.704375211819341 3.2184903271732477 -0.4744655060916529 14.066026546442785 15.064035080630992 2.052334568138975 30.82769892264197 9.787673608084445 -19.7075408106588 1.8979523151995374 5.184806650493828 2.974602978231386 0 0 0 0 0 0 0 0 0 0 0 0 0 0 0 0 0 0 0 0 0 0 0 0 0 0 0 0 0 0 0 0 0 0 0 0 0 0 0 0 0 0 0 0 0
-2.683922713060767e-7 -9.80557341014779 10.197374594938571 -90.00243755469731 -40.000634969357264 89.99971150230517 59.340028785256365 -22.458542499565596 -28.949551005525034 51.02271713453965 83.63585257439549 55.97324743354 -7.58064206662776 4.504788408991401 4.527358339247303 0 0 0 15.921358656437283 -69.5801950638144 -50.613316587367486 -32.20538080359685 73.1260975379708 -23.065532486268527 -0.8622887988203826 11.301964070061903 19.473384726828257 0 0 0 -6.4435727055534 3.197077858386391 -21.89160068195543 -15.759868724788031 4.170780893882183 -25.06257630504821 0 0 0 -23.929778177046988 -2.274165781839327 -5.711898033880229 64.38726267121602 -24.22545968587258 -54.95929984576722 -7.302721948328189 -34.34967962460906 -12.321233187475864 -16.937820159291604 37.642123762855185 2.3645884106217565 0 0 0 0 0 0 0 0 0 0 0 0 0 0 0 0 0 0 0 0 0 0 0 0 0 0 0 0 0 0 0 0 0 0 0 0 0 0 0 0 0 0 0 0 0 -14.053996533108235 -3.696725448944866 -20.930022051969765 29.28407217594758 -1.1076021936346439 -1.5924961143127196 0 0 0 0 0 0 0 0 0 -29.450851799471103 4.733434535293427 -1.3649071962935158 30.26868552971687 29.086711246851394 8.406117436059066 59.08902261683736 27.994148842881522 -32.681701488627084 4.089509237116995 10.260402770401289 6.158084216636952 0 0 0 0 0 0 0 0 0 0 0 0 0 0 0 0 0 0 0 0 0 0 0 0 0 0 0 0 0 0 0 0 0 0 0 0 0 0 0 0 0 0 0 0 0
-2.683922713060767e-7 -9.80557341014779 10.197374594938571 -90.00243755469731 -40.000634969357264 89.99971150230517 59.340028785256365 -22.458542499565596 -28.949551005525034 51.02276803004031 83.63585257439549 55.9732995378973 -7.58064206662776 4.504788408991401 4.527358339247303 0 0 0 15.921357479837285 -69.5801950638144 -50.613318478663054 -32.205389562823065 73.1260975379708 -23.065539801959265 -0.8622887988203826 11.301964070061903 19.473386368533795 0 0 0 -6.4435727055534 3.197077858386391 -21.89160068195543 -15.759868724788031 4.170780893882183 -25.06257630504821 0 0 0 -23.929779739049355 -2.274165781839327 -5.711898458982329 64.31876430327604 -24.405046709965333 -54.96319285592505 -7.302721948328189 -34.34967962460906 -12.321234197769973 -16.9062921304303 38.24077306307231 2.3839227255549 0 0 0 0 0 0 0 0 0 0 0 0 0 0 0 0 0 0 0 0 0 0 0 0 0 0 0 0 0 0 0 0 0 0 0 0 0 0 0 0 0 0 0 0 0 -14.048158396738291 -3.3176894078591728 -21.02508643265559 29.296737231978497 -0.8500685587569771 -1.6521384150410443 0 0 0 0 0 0 0 0 0 -29.450851799471103 4.733434535293427 -1.3649071962935158 30.268687499538796 29.086711246851394 8.406117436059066 59.08902261683736 27.994148842881522 -32.681701488627084 4.089509237116995 10.260402770401289 6.158084216636952 0 0 0 0 0 0 0 0 0 0 0 0 0 0 0 0 0 0 0 0 0 0 0 0 0 0 0 0 0 0 0 0 0 0 0 0 0 0 0 0 0 0 0 0 0
-2.683922713060767e-7 -9.80557341014779 10.197374594938571 -90.00243755469731 -40.000634969357264 89.99971150230517 59.340028785256365 -22.458542499565596 -28.949551005525034 51.02282191947369 83.63585257439549 55.97335108318168 -7.58064206662776 4.504788408991401 4.527358339247303 0 0 0 15.9213564691874 -69.5801950638144 -50.613318478663054 -32.20539988965969 73.1260975379708 -23.06554847075566 -0.8622887988203826 11.301964940719392 19.4733875295346 0 0 0 -6.44357355525611 3.19707743083413 -21.89160068195543 -15.759868724788031 4.170780893882183 -25.06257630504821 0 0 0 -23.929779739049355 -2.274165781839327 -5.711899649346532 64.2501832507033 -24.58463975543724 -54.966859608456666 -7.302721435465698 -34.34967962460906 -12.321234197769973 -16.874238589262088 38.83941649545419 2.4038417187828327 0 0 0 0 0 0 0 0 0 0 0 0 0 0 0 0 0 0 0 0 0 0 0 0 0 0 0 0 0 0 0 0 0 0 0 0 0 0 0 0 0 0 0 0 0 -14.042953093269551 -2.938644148348852 -21.12007611913285 29.309133504772053 -0.5925218944843356 -1.7117205491621905 0 0 0 0 0 0 0 0 0 -29.450851799471103 4.733434535293427 -1.3649071962935158 30.268689187128526 29.086711246851394 8.406116864761863 59.08902261683736 27.994148842881522 -32.681701488627084 4.089509237116995 10.260402770401289 6.158085079279108 0 0 0 0 0 0 0 0 0 0 0 0 0 0 0 0 0 0 0 0 0 0 0 0 0 0 0 0 0 0 0 0 0 0 0 0 0 0 0 0 0 0 0 0 0
-2.683922713060767e-7 -9.80557341014779 10.197374594938571 -90.00243319833272 -40.000634969357264 89.99970628061989 59.340028785256365 -22.458542499565596 -28.94954938871731 51.02277045244707 83.63585257439549 55.9733016929109 -7.58064206662776 4.504788408991401 4.527357912373758 0 0 0 15.921357479837285 -69.5801950638144 -50.613318478663054 -32.205389562823065 73.1260975379708 -23.065539801959265 -0.8622887988203826 11.301964070061903 19.473386368533795 0 0 0 -6.443573130404756 3.1970776446102604 -21.89160068195543 -15.759868724788031 4.170780893882183 -25.06257630504821 0 0 0 -23.929776615044585 -2.274165781839327 -5.711898458982329 64.18149721274307 -24.764287628406215 -54.97029984482405 -7.302721948328189 -34.34967962460906 -12.321233187475864 -16.84155031377388 39.43979160140046 2.424423692576724 0 0 0 0 0 0 0 0 0 0 0 0 0 0 0 0 0 0 0 0 0 0 0 0 0 0 0 0 0 0 0 0 0 0 0 0 0 0 0 0 0 0 0 0 0 -14.038370961541522 -2.5591269845368787 -21.215117741013295 29.32127054365658 -0.33481905938114237 -1.771277984625697 0 0 0 0 0 0 0 0 0 -29.450851799471103 4.733434535293427 -1.3649071962935158 30.268687499538796 29.086711246851394 8.406117436059066 59.08902261683736 27.994148842881522 -32.681701488627084 4.089509237116995 10.260402770401289 6.158085079279108 0 0 0 0 0 0 0 0 0 0 0 0 0 0 0 0 0 0 0 0 0 0 0 0 0 0 0 0 0 0 0 0 0 0 0 0 0 0 0 0 0 0 0 0 0
-2.683922713060767e-7 -9.80557341014779 10.197374594938571 -90.00242884196813 -40.000634969357264 89.99970105893462 59.34002719586368 -22.458540651883027 -28.949547600015404 51.022718985504156 83.63585257439549 55.97325389858431 -7.580641217693383 4.504788408991401 4.527357485500214 0 0 0 15.921358656437283 -69.5801950638144 -50.613316587367486 -32.20538080359685 73.1260975379708 -23.065532486268527 -0.8622887988203826 11.301964070061903 19.473384726828257 0 0 0 -6.4435727055534 3.197077858386391 -21.89160068195543 -15.759868724788031 4.170780893882183 -25.06257630504821 0 0 0 -23.92977366673108 -2.274165781839327 -5.711898033880229 64.11272502863675 -24.9439396063444 -54.973506838118574 -7.302722461190679 -34.34967962460906 -12.321232177181747 -16.808291879511366 40.04015882500054 2.445633383368754 0 0 0 0 0 0 0 0 0 0 0 0 0 0 0 0 0 0 0 0 0 0 0 0 0 0 0 0 0 0 0 0 0 0 0 0 0 0 0 0 0 0 0 0 0 -14.034420756888284 -2.1796029584091126 -21.31010021953266 29.333141851403 -0.07710372762527126 -1.830779731566094 0 0 0 0 0 0 0 0 0 -29.450851799471103 4.733434535293427 -1.3649071962935158 30.26868552971687 29.086711246851394 8.406117436059066 59.08902261683736 27.994148842881522 -32.681701488627084 4.089509237116995 10.260402770401289 6.158084216636952 0 0 0 0 0 0 0 0 0 0 0 0 0 0 0 0 0 0 0 0 0 0 0 0 0 0 0 0 0 0 0 0 0 0 0 0 0 0 0 0 0 0 0 0 0
